<?xml version="1.0" encoding="UTF-8" standalone="no"?>
<!DOCTYPE svg PUBLIC "-//W3C//DTD SVG 1.1//EN" "http://www.w3.org/Graphics/SVG/1.1/DTD/svg11.dtd">
<svg width="100%" height="100%" viewBox="0 0 9934 14044" version="1.1" xmlns="http://www.w3.org/2000/svg" xmlns:xlink="http://www.w3.org/1999/xlink" xml:space="preserve" xmlns:serif="http://www.serif.com/" style="fill-rule:evenodd;clip-rule:evenodd;stroke-linejoin:round;stroke-miterlimit:2;">
    <g transform="matrix(1172.46,-26.6467,-26.6467,-1172.46,7027.42,6667.55)">
        <path d="M1.294,0.489L0.512,-0.101C0.467,-0.144 0.42,-0.099 0.42,-0.099L0.209,0.13L-0.239,0.141L0.301,-0.469C0.328,-0.497 0.345,-0.487 0.353,-0.478C0.36,-0.47 0.367,-0.462 0.375,-0.454L1.338,0.488C1.338,0.502 1.334,0.507 1.327,0.507C1.314,0.507 1.294,0.489 1.294,0.489Z" style="fill:url(#_Linear1);fill-rule:nonzero;"/>
    </g>
    <g transform="matrix(1172.46,-26.6467,-26.6467,-1172.46,7049.55,7641.21)">
        <path d="M0.583,0.51C0.576,0.502 0.569,0.494 0.562,0.487L-0.402,-0.455C-0.403,-0.497 -0.357,-0.456 -0.357,-0.456L-0.267,-0.388L0.424,0.133C0.469,0.177 0.516,0.131 0.516,0.131L0.727,-0.098L1.175,-0.108L0.635,0.502C0.622,0.515 0.612,0.52 0.603,0.52C0.594,0.52 0.587,0.515 0.583,0.51Z" style="fill:url(#_Linear2);fill-rule:nonzero;"/>
    </g>
    <g transform="matrix(5783.51,0,0,-5783.51,1075.31,7121.91)">
        <path d="M0.53,0.108L0.52,0.074L0.565,0.074L0.574,0.108L0.53,0.108ZM0.2,0.108L0.057,0.108L0.047,0.069L0.179,0.069C0.217,0.067 0.226,0.055 0.226,0.055C0.255,0.025 0.222,-0.027 0.222,-0.027C0.194,-0.071 0.144,-0.068 0.144,-0.068L0.058,-0.068L0.083,0.025L0.035,0.025L0,-0.106L0.152,-0.106C0.212,-0.098 0.237,-0.073 0.237,-0.073C0.279,-0.041 0.287,0.025 0.287,0.025C0.295,0.107 0.204,0.108 0.2,0.108ZM0.881,0.05C0.854,0.05 0.831,0.043 0.813,0.03C0.794,0.017 0.781,-0.003 0.774,-0.029C0.767,-0.055 0.77,-0.075 0.781,-0.088C0.793,-0.101 0.812,-0.108 0.839,-0.108L0.96,-0.108L0.97,-0.073L0.848,-0.073C0.826,-0.073 0.816,-0.064 0.817,-0.045L0.931,-0.045C0.967,-0.045 0.989,-0.03 0.998,0.002C1.002,0.017 1,0.029 0.993,0.037C0.986,0.046 0.974,0.05 0.956,0.05L0.881,0.05ZM0.872,0.015L0.945,0.015C0.953,0.015 0.957,0.011 0.954,0.003C0.953,-0.002 0.951,-0.005 0.948,-0.007C0.945,-0.01 0.942,-0.011 0.938,-0.011L0.826,-0.011C0.836,0.007 0.851,0.015 0.872,0.015ZM0.739,0.048L0.656,-0.072L0.641,-0.072L0.623,0.048L0.577,0.048L0.601,-0.106L0.678,-0.106L0.785,0.048L0.739,0.048ZM0.514,0.048L0.472,-0.106L0.516,-0.106L0.557,0.048L0.514,0.048ZM0.32,0.048L0.279,-0.106L0.323,-0.106L0.355,0.014L0.418,0.014C0.43,0.014 0.435,0.008 0.431,-0.005L0.424,-0.031L0.468,-0.031L0.477,0.001C0.481,0.015 0.48,0.027 0.474,0.035C0.468,0.044 0.456,0.048 0.439,0.048L0.32,0.048Z" style="fill:url(#_Linear3);fill-rule:nonzero;"/>
    </g>
    <g transform="matrix(10.857,0,0,10.857,8521.65,7560.05)">
        <path d="M0,8.59L0,1.014L-2.83,1.014L-2.83,0L3.979,0L3.979,1.014L1.137,1.014L1.137,8.59L0,8.59Z" style="fill-rule:nonzero;"/>
    </g>
    <g transform="matrix(10.857,0,0,10.857,8577.12,7560.05)">
        <path d="M0,8.59L0,0L1.711,0L3.744,6.082C3.932,6.649 4.068,7.072 4.154,7.354C4.252,7.041 4.404,6.582 4.611,5.977L6.668,0L8.197,0L8.197,8.59L7.102,8.59L7.102,1.401L4.605,8.59L3.58,8.59L1.096,1.278L1.096,8.59L0,8.59Z" style="fill-rule:nonzero;"/>
    </g>
    <g transform="matrix(10.857,0,0,10.857,8581.88,7725.86)">
        <path d="M0,-21.764C-6,-21.764 -10.882,-16.882 -10.882,-10.882C-10.882,-4.882 -6,0 0,0C6,0 10.882,-4.882 10.882,-10.882C10.882,-16.882 6,-21.764 0,-21.764M0,1C-6.552,1 -11.882,-4.33 -11.882,-10.882C-11.882,-17.434 -6.552,-22.764 0,-22.764C6.552,-22.764 11.882,-17.434 11.882,-10.882C11.882,-4.33 6.552,1 0,1" style="fill-rule:nonzero;"/>
    </g>
    <defs>
        <linearGradient id="_Linear1" x1="0" y1="0" x2="1" y2="0" gradientUnits="userSpaceOnUse" gradientTransform="matrix(1,3.46945e-18,3.46945e-18,-1,0,0.00966802)"><stop offset="0" style="stop-color:rgb(230,60,50);stop-opacity:1"/><stop offset="0" style="stop-color:rgb(230,60,50);stop-opacity:1"/><stop offset="1" style="stop-color:rgb(244,120,35);stop-opacity:1"/></linearGradient>
        <linearGradient id="_Linear2" x1="0" y1="0" x2="1" y2="0" gradientUnits="userSpaceOnUse" gradientTransform="matrix(1,3.46945e-18,3.46945e-18,-1,0,0.0229356)"><stop offset="0" style="stop-color:rgb(230,60,50);stop-opacity:1"/><stop offset="0" style="stop-color:rgb(230,60,50);stop-opacity:1"/><stop offset="1" style="stop-color:rgb(244,120,35);stop-opacity:1"/></linearGradient>
        <linearGradient id="_Linear3" x1="0" y1="0" x2="1" y2="0" gradientUnits="userSpaceOnUse" gradientTransform="matrix(1,0,0,-1,0,-2.2568e-06)"><stop offset="0" style="stop-color:rgb(100,70,155);stop-opacity:1"/><stop offset="1" style="stop-color:rgb(145,47,126);stop-opacity:1"/></linearGradient>
    </defs>
</svg>
